:FULLY-SPECIFIED
:FORCE-ALL-JOINTS-BE-3DOF
:DEGREES
510
root 6.05808 16.2338 -5.08228 -187.199 80.5005 -191.63
lfemur -24.4033 -16.2276 -22.6336
ltibia 54.9324 0 0
lfoot -26.889 -3.8072 0
ltoes 5.93981 0 0
rfemur -59.1107 7.58889 3.39492
rtibia 56.4554 0 0
rfoot 9.9824 10.432 0
rtoes -20.8057 0 0
lowerback 9.47519 0.241981 -0.498842
upperback 1.8635 0.561553 3.43968
thorax -3.42019 0.36081 3.78934
lowerneck -8.56819 -12.7593 -4.29073
upperneck 12.3458 -16.9746 2.74199
head 5.70487 -8.25605 0.190669
lclavicle -2.7629e-14 1.61474e-14 0
lhumerus -46.8564 -34.5644 118.466
lradius 57.75 0 0
lwrist 7.83616 0 0
lhand 4.23944 -1.2808 0
lfingers 7.12502 0 0
lthumb 29.6125 26.049 0
rclavicle -2.7629e-14 1.61474e-14 0
rhumerus -14.0504 44.1025 -81.0487
rradius 119.201 0 0
rwrist -7.87045 0 0
rhand 7.16449 -12.0378 0
rfingers 7.12502 0 0
rthumb 32.4156 -759.01 0
511
root 6.1093 16.2051 -5.03103 -189.025 79.5227 -193.398
lfemur -24.5188 -15.7099 -22.7482
ltibia 55.8095 0 0
lfoot -27.0058 -3.0348 0
ltoes 4.92772 0 0
rfemur -58.7208 7.59619 2.7823
rtibia 54.9236 0 0
rfoot 10.4783 10.693 0
rtoes -21.7496 0 0
lowerback 9.70298 0.299132 -0.365565
upperback 2.01017 0.67844 3.67478
thorax -3.40431 0.425218 3.94578
lowerneck -8.48795 -13.0174 -4.49788
upperneck 12.5812 -17.3157 2.82212
head 5.80186 -8.41747 0.205616
lclavicle -3.17404e-14 1.62341e-14 0
lhumerus -46.6147 -34.5233 118.542
lradius 58.0179 0 0
lwrist 8.24038 0 0
lhand 3.28186 -1.68803 0
lfingers 7.12502 0 0
lthumb 28.6944 25.763 0
rclavicle -3.17404e-14 1.62341e-14 0
rhumerus -11.7113 42.5547 -80.3342
rradius 120.992 0 0
rwrist -10.6697 0 0
rhand 6.10293 -12.371 0
rfingers 7.12502 0 0
rthumb 31.3975 -759.472 0
512
root 6.15239 16.1775 -4.98692 -189.977 78.4749 -194.315
lfemur -24.6781 -15.1454 -22.8739
ltibia 56.657 0 0
lfoot -27.0937 -2.22771 0
ltoes 3.94927 0 0
rfemur -58.2276 7.57139 2.18651
rtibia 53.4706 0 0
rfoot 11.0387 10.9396 0
rtoes -22.6981 0 0
lowerback 9.90429 0.354807 -0.226084
upperback 2.14898 0.793167 3.90162
thorax -3.38173 0.488273 4.09019
lowerneck -8.40761 -13.2584 -4.69189
upperneck 12.7886 -17.6345 2.89811
head 5.88996 -8.56808 0.219737
lclavicle -3.58876e-14 1.6223e-14 0
lhumerus -46.3775 -34.4665 118.588
lradius 58.2878 0 0
lwrist 8.63377 0 0
lhand 2.28371 -2.1077 0
lfingers 7.12502 0 0
lthumb 27.7377 25.4721 0
rclavicle -3.58876e-14 1.6223e-14 0
rhumerus -9.4858 40.7994 -79.6363
rradius 122.572 0 0
rwrist -13.4047 0 0
rhand 4.87432 -12.7688 0
rfingers 7.12502 0 0
rthumb 30.2189 -760.016 0
513
root 6.18918 16.1499 -4.94853 -190.167 77.3594 -194.491
lfemur -24.8779 -14.5403 -23.0049
ltibia 57.4878 0 0
lfoot -27.1618 -1.40043 0
ltoes 3.00241 0 0
rfemur -57.6447 7.51239 1.60663
rtibia 52.0993 0 0
rfoot 11.6418 11.1679 0
rtoes -23.6521 0 0
lowerback 10.0829 0.408986 -0.0812951
upperback 2.28229 0.905838 4.12125
thorax -3.35214 0.550114 4.2242
lowerneck -8.32484 -13.4842 -4.8739
upperneck 12.9689 -17.9337 2.97262
head 5.96919 -8.70921 0.233992
lclavicle -3.99827e-14 1.61237e-14 0
lhumerus -46.1455 -34.3867 118.602
lradius 58.5566 0 0
lwrist 9.02537 0 0
lhand 1.2451 -2.53577 0
lfingers 7.12502 0 0
lthumb 26.7423 25.1797 0
rclavicle -3.99827e-14 1.61237e-14 0
rhumerus -7.36483 38.8672 -78.961
rradius 123.966 0 0
rwrist -16.0814 0 0
rhand 3.49475 -13.2241 0
rfingers 7.12502 0 0
rthumb 28.8953 -760.632 0
514
root 6.22149 16.1215 -4.91448 -189.707 76.1786 -194.034
lfemur -25.115 -13.9003 -23.1357
ltibia 58.315 0 0
lfoot -27.2188 -0.567479 0
ltoes 2.08506 0 0
rfemur -56.9855 7.41706 1.04171
rtibia 50.8126 0 0
rfoot 12.2658 11.3738 0
rtoes -24.6121 0 0
lowerback 10.2428 0.461645 0.0679048
upperback 2.41241 1.01656 4.33469
thorax -3.31521 0.610882 4.34941
lowerneck -8.2373 -13.6968 -5.04506
upperneck 13.1225 -18.216 3.04832
head 6.03961 -8.84223 0.249342
lclavicle -4.3938e-14 1.59456e-14 0
lhumerus -45.9192 -34.2762 118.581
lradius 58.821 0 0
lwrist 9.42419 0 0
lhand 0.166143 -2.96819 0
lfingers 7.12502 0 0
lthumb 25.7083 24.8888 0
rclavicle -4.3938e-14 1.59456e-14 0
rhumerus -5.33914 36.7887 -78.3143
rradius 125.199 0 0
rwrist -18.7059 0 0
rhand 1.98035 -13.7298 0
rfingers 7.12502 0 0
rthumb 27.4423 -761.312 0
515
root 6.25113 16.0912 -4.88338 -188.711 74.9347 -193.052
lfemur -25.3862 -13.2315 -23.2605
ltibia 59.1513 0 0
lfoot -27.2737 0.256647 0
ltoes 1.19515 0 0
rfemur -56.2635 7.2833 0.490823
rtibia 49.6134 0 0
rfoot 12.8889 11.5531 0
rtoes -25.5788 0 0
lowerback 10.3876 0.512765 0.220619
upperback 2.5417 1.12544 4.543
thorax -3.2706 0.670716 4.46747
lowerneck -8.14268 -13.8983 -5.2065
upperneck 13.2503 -18.4843 3.12788
head 6.10125 -8.96847 0.266747
lclavicle -4.76654e-14 1.56984e-14 0
lhumerus -45.6995 -34.1276 118.521
lradius 59.0778 0 0
lwrist 9.83927 0 0
lhand -0.953061 -3.40094 0
lfingers 7.12502 0 0
lthumb 24.6358 24.6029 0
rclavicle -4.76654e-14 1.56984e-14 0
rhumerus -3.3995 34.5944 -77.7024
rradius 126.297 0 0
rwrist -21.2842 0 0
rhand 0.347217 -14.2788 0
rfingers 7.12502 0 0
rthumb 25.8751 -762.046 0
516
root 6.27993 16.0582 -4.85383 -187.292 73.6301 -191.654
lfemur -25.6882 -12.5398 -23.3737
ltibia 60.0098 0 0
lfoot -27.3353 1.05744 0
ltoes 0.330618 0 0
rfemur -55.4923 7.10899 -0.046974
rtibia 48.5046 0 0
rfoot 13.4894 11.7018 0
rtoes -26.553 0 0
lowerback 10.5212 0.562325 0.37595
upperback 2.6725 1.23258 4.74721
thorax -3.21801 0.729757 4.57997
lowerneck -8.03862 -14.0905 -5.35937
upperneck 13.353 -18.7413 3.21397
head 6.15416 -9.08929 0.287166
lclavicle -5.10772e-14 1.53914e-14 0
lhumerus -45.4868 -33.9334 118.421
lradius 59.3237 0 0
lwrist 10.2796 0 0
lhand -2.1124 -3.82996 0
lfingers 7.12502 0 0
lthumb 23.5248 24.325 0
rclavicle -5.10772e-14 1.53914e-14 0
rhumerus -1.53669 32.315 -77.1313
rradius 127.285 0 0
rwrist -23.8224 0 0
rhand -1.38853 -14.8639 0
rfingers 7.12502 0 0
rthumb 24.2093 -762.824 0
517
root 6.3097 16.0215 -4.82444 -185.562 72.2671 -189.949
lfemur -26.0178 -11.8312 -23.4696
ltibia 60.9033 0 0
lfoot -27.4125 1.8204 0
ltoes -0.510608 0 0
rfemur -54.6854 6.89203 -0.572614
rtibia 47.4891 0 0
rfoot 14.0454 11.8158 0
rtoes -27.5353 0 0
lowerback 10.6474 0.610302 0.533003
upperback 2.80714 1.33809 4.94835
thorax -3.1571 0.788144 4.68855
lowerneck -7.92281 -14.2755 -5.5048
upperneck 13.4312 -18.9896 3.30924
head 6.19837 -9.20603 0.311559
lclavicle -5.40855e-14 1.50343e-14 0
lhumerus -45.2818 -33.6861 118.277
lradius 59.5555 0 0
lwrist 10.7543 0 0
lhand -3.31178 -4.25123 0
lfingers 7.12502 0 0
lthumb 22.3754 24.0585 0
rclavicle -5.40855e-14 1.50343e-14 0
rhumerus 0.258508 29.981 -76.6072
rradius 128.188 0 0
rwrist -26.3264 0 0
rhand -3.21079 -15.4781 0
rfingers 7.12502 0 0
rthumb 22.4603 -763.639 0
518
root 6.34228 15.9801 -4.79381 -183.634 70.848 -188.045
lfemur -26.3718 -11.1116 -23.5425
ltibia 61.8449 0 0
lfoot -27.5142 2.53101 0
ltoes -1.33059 0 0
rfemur -53.8562 6.6303 -1.08703
rtibia 46.5698 0 0
rfoot 14.5352 11.891 0
rtoes -28.5264 0 0
lowerback 10.7701 0.656676 0.690879
upperback 2.94796 1.44207 5.14748
thorax -3.08754 0.846018 4.79482
lowerneck -7.7929 -14.4552 -5.64393
upperneck 13.4855 -19.2322 3.41637
head 6.23393 -9.32004 0.340887
lclavicle -5.66024e-14 1.46365e-14 0
lhumerus -45.0851 -33.3783 118.086
lradius 59.77 0 0
lwrist 11.2722 0 0
lhand -4.55109 -4.66069 0
lfingers 7.12502 0 0
lthumb 21.1875 23.8065 0
rclavicle -5.66024e-14 1.46365e-14 0
rhumerus 1.99532 27.623 -76.1361
rradius 129.031 0 0
rwrist -28.8024 0 0
rhand -5.10344 -16.1143 0
rfingers 7.12502 0 0
rthumb 20.6435 -764.479 0
519
root 6.37948 15.9331 -4.76055 -181.62 69.3751 -186.052
lfemur -26.7469 -10.3871 -23.5868
ltibia 62.8473 0 0
lfoot -27.6492 3.17477 0
ltoes -2.13141 0 0
rfemur -53.0183 6.3217 -1.59117
rtibia 45.7497 0 0
rfoot 14.937 11.9234 0
rtoes -29.5269 0 0
lowerback 10.8931 0.701426 0.848684
upperback 3.0973 1.54463 5.34562
thorax -3.00902 0.903519 4.90042
lowerneck -7.64658 -14.6315 -5.7779
upperneck 13.5168 -19.4718 3.53801
head 6.26088 -9.43267 0.37611
lclavicle -5.85401e-14 1.42075e-14 0
lhumerus -44.8975 -33.0025 117.846
lradius 59.9639 0 0
lwrist 11.8425 0 0
lhand -5.83021 -5.05433 0
lfingers 7.12502 0 0
lthumb 19.9612 23.5722 0
rclavicle -5.85401e-14 1.42075e-14 0
rhumerus 3.68296 25.2717 -75.7241
rradius 129.841 0 0
rwrist -31.2564 0 0
rhand -7.05037 -16.7653 0
rfingers 7.12502 0 0
rthumb 18.7744 -765.337 0
